# xmcd
#
# Track frame offsets: 
#        150
#        20033
#        41086
#        68041
#        84901
#        112591
#        127224
#        146717
#        171850
#        197230
#        218785
#        243513
#        256188
#        290516
#
# Disc length: 4137 seconds
#
# Revision: 2
# Processed by: cddbd v1.5.2PL0 Copyright (c) Steve Scherf et al.
# Submitted via: ExactAudioCopyFreeDBPlugin 1.0
#
DISCID=cf10270e
DTITLE=B.B. King - The Many Faces Of B.B. King [CD1 The Many Faces Of 
DTITLE=B.B. King)
DYEAR=2018
DGENRE=Blues
TTITLE0=Sinner's Praye (feat. Ray Charles)
TTITLE1=The Thrill Is Gone (feat. Dave Brubeck and Pat Metheny)
TTITLE2=There's Something On Your Mind (feat. Etta James)
TTITLE3=In The Midnight Hour (feat. Stevie Ray Vaughn, Paul Butterfiel
TTITLE3=d, Gladys Knight, Chaka Khan, Etta James and Billy Ocean)
TTITLE4=Paying The Cost To Be The Boss (feat. Dave Brubeck and Pat Methe
TTITLE4=ny)
TTITLE5=Summer In The City (feat. Milton Hopkins and Ron Levy)
TTITLE6=Ain't Nobody Business (feat. Etta James, Chaka Khan and Gladys K
TTITLE6=night)
TTITLE7=So Excited (feat. Gerald Jemmott and Hugh McCracken)
TTITLE8=Guess Who? (feat. Dave Brubeck and Pat Metheny)
TTITLE9=Nobody Loves Me But My Mother (feat. Paul Harris and Sonny Freem
TTITLE9=an)
TTITLE10=I've Got A Mind To Give Up Living (feat. Ron Levy and Milton Ho
TTITLE10=pkins)
TTITLE11=Please Love Me (feat. Red Callender and Willard McDaniel)
TTITLE12=Outside Help
TTITLE13=Why I Sing The Blues
EXTD=
EXTT0=
EXTT1=
EXTT2=
EXTT3=
EXTT4=
EXTT5=
EXTT6=
EXTT7=
EXTT8=
EXTT9=
EXTT10=
EXTT11=
EXTT12=
EXTT13=
PLAYORDER=
